# xmcd CD database file
#
# Track frame offsets:
#	150
#	16365
#	30270
#	42633
#	59083
#	75448
#	93445
#	111398
#	128400
#	137175
#	160205
#	170080
#	178785
#	188993
#	204205
#
# Disc length: 2925 seconds
#
# Revision: 0
# Processed by: cddbd v1.5.1PL0 Copyright (c) Steve Scherf et al.
# Submitted via: CDex 1.51
#
DISCID=cb0b6b0f
DTITLE=Various Artist - Cinema Americana
DYEAR=2002
DGENRE=Cinema
TTITLE0=LeAnn Rimes - Can't Fight The Moonlight
TTITLE1=Sammy Davis, Jr. and Mike Curb Congregation - The Candy Man
TTITLE2=The Mike Curb Congregation - Burning Bridges
TTITLE3=The Righteous Brothers - Unchained Melody
TTITLE4=Debby Boone - You Light Up My Life
TTITLE5=Tamara Walker - Angel Eyes
TTITLE6=Mary Griffin - I Wanna Get Back With You
TTITLE7=Johnny Lee - Lookin' For Love
TTITLE8=Duane Eddy - Bcause They're Young
TTITLE9=Bachman-Turner Overdrive - Takin' Care Of Business
TTITLE10=Davie Allan and The Arrows - Blues Theme
TTITLE11=Max Frost and The Troopers - Shape Of Things To Come
TTITLE12=Roger Williams - Born Free
TTITLE13=Maureen McGovern - Can You Read My Mind
TTITLE14=Roy Orbison and The Mike Curb Congregation - It Takes All Knds Of People
EXTD=YEAR: 2002
EXTT0=
EXTT1=
EXTT2=
EXTT3=
EXTT4=
EXTT5=
EXTT6=
EXTT7=
EXTT8=
EXTT9=
EXTT10=
EXTT11=
EXTT12=
EXTT13=
EXTT14=
PLAYORDER=
